<svg xmlns="http://www.w3.org/2000/svg" width="69" height="16" fill="none"><path fill="#F58120" d="M.164 15.472a.784.784 0 0 1-.138-.679c.96-3.677 4.183-6.377 7.938-6.718A12.74 12.74 0 0 1 19.619.553c3.372 0 6.63 1.351 9.017 3.724a12.667 12.667 0 0 1 3.775-.573c1.628 0 3.208.303 4.706.902A13.27 13.27 0 0 1 47.197 0c5.069 0 9.695 2.884 11.944 7.395.215-.017.417-.025.615-.025a9.027 9.027 0 0 1 8.908 7.486.785.785 0 0 1-.774.921H.786a.783.783 0 0 1-.622-.305Zm59.592-6.53c-.295 0-.608.023-.984.072a.79.79 0 0 1-.82-.46 11.792 11.792 0 0 0-10.755-6.983 11.715 11.715 0 0 0-9.234 4.475.785.785 0 0 1-.941.227 11.061 11.061 0 0 0-4.612-.998c-1.276 0-2.532.216-3.732.643a.785.785 0 0 1-.839-.205 11.256 11.256 0 0 0-8.22-3.588 11.178 11.178 0 0 0-10.396 7 .786.786 0 0 1-.702.49c-2.928.098-5.53 1.937-6.642 4.59h65.016a7.458 7.458 0 0 0-7.14-5.264Z"/></svg>