<svg xmlns="http://www.w3.org/2000/svg" width="60" height="21" fill="none"><path fill="#F58120" d="M15.854 13.999H.703a.703.703 0 0 1 0-1.406h15.151a.703.703 0 0 1 0 1.406ZM20.417 8.98H6.348a.703.703 0 0 1 0-1.405h14.069a.703.703 0 0 1 0 1.406ZM24.836 20.675H9.605a.702.702 0 0 1 0-1.405h15.231a.703.703 0 0 1 0 1.405Z"/><path fill="#F58120" d="M58.707 16.556H20.456a.703.703 0 0 1-.7-.637 8.783 8.783 0 0 1-.041-.825c0-4.664 3.69-8.483 8.303-8.69A8.725 8.725 0 0 1 36.41 0a8.65 8.65 0 0 1 7.467 4.247 11.771 11.771 0 0 1 3.712-.597c6.523 0 11.83 5.307 11.83 11.83 0 .11-.004.22-.008.33l-.002.067a.702.702 0 0 1-.702.68ZM21.12 15.151h36.888c-.174-5.597-4.78-10.096-10.42-10.096-1.3 0-2.572.239-3.783.711a.703.703 0 0 1-.883-.338 7.26 7.26 0 0 0-6.512-4.023c-3.457 0-6.464 2.456-7.148 5.84-.067.332-.358.588-.701.563-.038 0-.075-.003-.112-.006h-.004c-4.056 0-7.325 3.271-7.325 7.292v.057Z"/><path fill="#F58120" d="M30.262 14.07a.703.703 0 0 1-.689-.846 5.085 5.085 0 0 1 4.96-4.027 5.085 5.085 0 0 1 4.959 4.028.702.702 0 0 1-1.375.287 3.675 3.675 0 0 0-3.584-2.91 3.675 3.675 0 0 0-3.584 2.91.702.702 0 0 1-.687.559Z"/><path fill="#F58120" d="M47.846 10.867a.702.702 0 0 1-.673-.505 4.882 4.882 0 0 0-4.659-3.487 4.883 4.883 0 0 0-4.658 3.487.703.703 0 0 1-1.348-.396 6.295 6.295 0 0 1 6.006-4.496 6.296 6.296 0 0 1 6.007 4.496.703.703 0 0 1-.675.9Z"/></svg>