<svg xmlns="http://www.w3.org/2000/svg" width="60" height="37" fill="none"><path fill="#fff" fill-rule="evenodd" d="M56.291 2.592c-.145-.045-.19-.075-.22-.065-3.98 1.31-7.905 2.786-11.957 3.873-.033.009-.056.057-.083.088.329.574 1.522 1.711 3.566 3.396.729-.546 1.506-1.07 2.22-1.67 2.08-1.744 4.136-3.517 6.198-5.282.09-.077.153-.186.276-.34ZM38.502 1.196c.83.835 1.44 1.44 2.037 2.059.258.267.553.317.901.267 1.183-.171 2.369-.318 3.55-.498 2.77-.42 5.539-.853 8.308-1.288.264-.041.597.022.748-.411-5.116-.13-10.196-.596-15.544-.13Z" clip-rule="evenodd"/><path fill="#fff" fill-rule="evenodd" d="M53.01 2.587 41.75 4.179c-.018 1.495.328 2.938.356 4.568.22-.194.357-.27.427-.387.252-.424.585-.837.696-1.3.16-.67.595-.93 1.159-1.138 2.433-.899 4.865-1.804 7.294-2.716.414-.156.879-.216 1.327-.62Z" clip-rule="evenodd"/><path fill="#fff" fill-rule="evenodd" d="M42.754 9.188c.768-.072 1.329-.432 1.9-.883-.145-.19-.25-.358-.384-.5-.134-.138-.297-.25-.486-.406-.315.283-.394.647-.569.946-.162.276-.308.562-.461.843Z" clip-rule="evenodd"/><path fill="#F58120" fill-rule="evenodd" d="M59.885.584C59.24.381 58.677.371 58.099.376c-1.69.014-3.382.03-5.072-.02C50.058.267 47.09.13 44.121.015c-2.237-.086-4.448.17-6.651.527-.064.01-.118.083-.25.18.173.173.33.342.5.495.832.741 1.666 1.479 2.502 2.215.386.34.574.73.625 1.276.166 1.765.354 3.532.852 5.245.044.152.095.302.159.503 1.285-.235 2.37-.765 3.315-1.63.898.49 1.378 1.35 2.116 2.007.801-.21 1.506-.636 2.148-1.123A112.762 112.762 0 0 0 53.3 6.616c1.716-1.422 3.408-2.87 5.11-4.31.409-.346.831-.681 1.206-1.062.145-.146.172-.407.269-.66ZM56.29 2.592c-.124.154-.186.263-.276.34-2.063 1.765-4.118 3.538-6.199 5.282-.714.6-1.491 1.125-2.22 1.67-2.044-1.684-3.237-2.822-3.566-3.396.028-.03.05-.079.083-.088 4.053-1.086 7.978-2.563 11.957-3.872.031-.011.075.02.22.064ZM38.502 1.196c5.348-.467 10.428 0 15.543.128-.151.433-.484.37-.748.412-2.768.435-5.537.867-8.307 1.288-1.181.18-2.367.327-3.55.497-.348.05-.643 0-.902-.267-.596-.618-1.207-1.223-2.036-2.058Zm14.508 1.39c-.448.404-.913.464-1.328.62-2.428.913-4.86 1.818-7.294 2.717-.563.207-.998.467-1.158 1.137-.111.463-.444.877-.697 1.3-.07.117-.207.193-.426.388-.029-1.631-.374-3.074-.357-4.569l11.26-1.592ZM42.755 9.189c.152-.281.299-.567.46-.842.175-.3.255-.664.57-.946.189.156.351.267.485.406.134.14.24.31.384.5-.57.45-1.131.81-1.9.882ZM28.358 11.262c.119-.287.216-.452.249-.628.023-.127.006-.316-.073-.399-.188-.196-.334-.354-.277-.672.07-.385-.218-.602-.546-.797l-.605.324-.734-.436c-.372.077-.566.451-.59 1.227l-1.566.26c-.074.113-.146.172-.147.233-.006.216.013.432.025.703 1.074.253 2.004-.168 3.005-.46.362.187.751.386 1.26.645ZM1.635 25.553l-.876.142c-.021.16-.075.28-.045.37.335.999.794 1.936 1.407 2.842.43-.085.599-.424.87-.752l-1.356-2.602ZM5.475 31.32c-.312-.358-.635-.72-.948-1.089-.286-.339-.56-.687-.834-1.025-.451.117-.61.47-.88.754.51.863 1.117 1.597 1.89 2.172.53-.333.523-.339.772-.813ZM1.667 13.022c-.518.994-.762 1.92-1 2.867.173.12.285.217.413.28.13.063.276.093.393.13.093-.06.19-.088.208-.143.287-.842.563-1.688.853-2.568l-.867-.566ZM1.36 17.594l-.763-.388c-.102.075-.2.108-.21.16-.203.902-.381 1.81-.313 2.806l.766.278c.103-.09.196-.13.205-.185.152-.871.29-1.746.314-2.671ZM.045 21.546c-.131 1.009.042 1.99.284 3.044l.943-.186-.257-2.582c-.272-.305-.567-.404-.97-.276ZM10.89 4.564l.071.947 2.464.355c.274-.315.274-.315.361-.78-.865-.466-1.803-.491-2.896-.522ZM6.78 7.411l-.579-.624c-.88.506-1.42 1.03-2.042 1.98l.62.504c.417-.248.65-.649.98-.939.333-.295.662-.596 1.021-.92ZM18.06 7.417l-.457.82c.584.657 1.288 1.096 2.085 1.51.29-.345.255-.696.194-1.075a14.166 14.166 0 0 0-1.821-1.255ZM31.758 11.68c-.715-.282-1.338-.53-1.962-.775-.372.159-.423.482-.479.8.864.57 1.417.775 2.44.895v-.92ZM26.819 2.242c-.155.168-.247.238-.298.33-.071.128-.111.272-.174.431l1.244 1.849c.484-.125.484-.125.865-.442-.356-.82-.888-1.514-1.637-2.168ZM9.758 5.705l-.056-.904a5.823 5.823 0 0 0-2.596 1.22l.358.75c.456-.059.757-.372 1.123-.531.375-.163.745-.339 1.17-.535ZM5.72 33.085l1.931 1.498.626-.818c-.303-.252-.562-.463-.818-.679-.312-.263-.622-.53-.927-.79-.416.142-.69.347-.812.789ZM3 12.405l1.142-2.093-.609-.579c-.14.084-.267.116-.316.196-.385.63-.755 1.27-1.103 1.861.189.434.49.538.886.615ZM17.136 6.82c-.682-.578-1.37-.925-2.131-1.3-.137.305-.25.56-.388.871l1.892 1.183c.115-.043.21-.05.242-.098.122-.18.224-.376.385-.656ZM23.065 10.99c.064-.593-.14-.99-.751-1.16-.393-.11-.77-.28-1.155-.422-.369.195-.293.567-.388.86.852.613 1.376.777 2.294.721ZM28.89 8.37c.334-1.036.26-1.889-.051-2.803l-.887.32.1 1.744.837.74ZM35.11 12.997c-.135-.594-.333-.94-.881-.964-.404-.017-.807-.04-1.279-.063l-.064.841c.702.346 1.39.275 2.223.186ZM35.94 12.049l.42.812c.748-.065 1.395-.292 2.015-.62-.347-.778-.384-.808-.948-.65-.461.128-.916.281-1.486.458ZM23.567 1.808l1.876.441.347-.645c-.56-.476-1.181-.553-1.814-.577-.475-.018-.54.11-.409.78ZM24.525 6.887c-.234.213-.447.404-.708.643.351.512.753.906 1.195 1.212.1-.02.155-.016.17-.038.138-.213.27-.428.409-.652-.23-.518-.628-.827-1.066-1.165ZM23.127 6.707l.632-.745-.948-1.425-.74.086c-.027.118-.077.201-.055.255.262.615.646 1.154 1.11 1.83ZM22.253 1.624c-.59.535-.856 1.099-.716 1.79.308.274.523.05.78-.01.03-.577.578-1.12-.064-1.78ZM9.039 34.606c-.18.22-.311.383-.473.583.468.51.897.986 1.663.931-.178-.661-.178-.661-1.19-1.514ZM38.892 10.998l.487.572c.438-.14.666-.424.829-.763.06-.127.092-.298.06-.431a.595.595 0 0 0-.25-.326c-.063-.04-.231.006-.297.07-.267.258-.511.537-.829.878Z" clip-rule="evenodd"/></svg>