<svg xmlns="http://www.w3.org/2000/svg" width="150" height="150" fill="none"><g clip-path="url(#a)"><path fill="#282769" d="M108.783 54.966a1.76 1.76 0 0 1-1.242 2.154 1.76 1.76 0 0 1-2.154-1.243 1.758 1.758 0 1 1 3.396-.912Zm-12.438 1.511a1.757 1.757 0 0 0-1.242 2.154 1.757 1.757 0 0 0 2.153 1.242 1.757 1.757 0 1 0-.911-3.396ZM86.06 59.234a1.757 1.757 0 1 0 .912 3.396 1.756 1.756 0 0 0 1.242-2.154 1.76 1.76 0 0 0-2.154-1.242ZM75.776 61.99a1.757 1.757 0 0 0-1.242 2.154 1.756 1.756 0 0 0 2.154 1.242 1.758 1.758 0 1 0-.912-3.396Zm-10.284 2.754a1.757 1.757 0 0 0-1.243 2.154 1.756 1.756 0 0 0 2.154 1.242 1.756 1.756 0 0 0 1.242-2.154 1.762 1.762 0 0 0-2.153-1.242Zm81.567-.462c-2.59 2.745-6.659 4.922-11.771 6.29l-36.22 9.704L89.004 97.07a30.337 30.337 0 0 1-14.815 12.565l-13.657 5.386a3.25 3.25 0 0 1-1.183.225 3.137 3.137 0 0 1-2.391-1.111 3.153 3.153 0 0 1-.347-3.666L69.7 87.804c-9.157 1.952-17.098 2.988-23.848 2.988-6.703 0-12.267-1.012-16.976-2.934L25.561 93.6a10.216 10.216 0 0 1-6.246 4.793l-4.029 1.078a3.142 3.142 0 0 1-3.176-.933 3.164 3.164 0 0 1-.628-3.243l5.876-15.811c-.09-.108-.183-.209-.27-.317C8.29 68.3 2.3 60.68.675 58.603a3.138 3.138 0 0 1-.513-2.939 3.139 3.139 0 0 1 2.182-2.046L12.52 50.89c2-.54 4.118-.017 5.649 1.397l13.64 12.625 30.373-8.14-23.608-13.63a3.14 3.14 0 0 1-1.536-3.345 3.143 3.143 0 0 1 2.654-2.552l14.521-2.166c6.537-.98 13.33.258 19.116 3.471l9.377 5.213a1.757 1.757 0 1 1-1.704 3.072l-9.38-5.212a26.83 26.83 0 0 0-16.888-3.068l-13.566 2.022 25.819 14.907 48.026-12.87c9.384-2.512 16.15 1.526 20.189 3.942.722.431 1.347.811 1.882 1.074 5.273.761 11.416 3.714 12.701 8.512.693 2.6-.3 5.567-2.726 8.14ZM72.063 83.709l3.375-5.845-34.387 9.213c8.119.68 18.293-.443 31.012-3.368Zm74.323-26.653c-.841-3.14-5.801-5.42-10.038-5.976a1.676 1.676 0 0 1-.497-.14c-.495-.224-1.092-.563-1.739-.943l-11.48 3.075a1.766 1.766 0 0 1-2.154-1.242c-.251-.935.338-1.91 1.242-2.154l7.976-2.138c-3.527-1.713-8.074-3.054-13.776-1.525L31.781 68.559a1.75 1.75 0 0 1-1.65-.407L15.783 54.867a2.487 2.487 0 0 0-2.35-.581L3.784 56.87a1728.9 1728.9 0 0 0 16.039 20.084c.278.344.562.682.855 1.008.445.499.527 1.176.316 1.762.008.007.012.007.02.014l-6.008 16.163 3.4-.91a6.728 6.728 0 0 0 4.112-3.157l8.016-13.882-4.73 1.268c-.93.242-1.901-.307-2.154-1.242a1.76 1.76 0 0 1 1.242-2.154l5.513-1.479a3.179 3.179 0 0 1 3.344 1.137 3.168 3.168 0 0 1 .232 3.522l-3.33 5.768c.75.291 1.486.596 2.29.835l44.983-12.056 1.163-2.014a1.757 1.757 0 1 1 3.045 1.755L60.14 111.397l12.762-5.032A26.773 26.773 0 0 0 85.99 95.266l18.267-30.482a1.759 1.759 0 0 1 2.412-.605c.534.321.804.881.82 1.462l31.995-8.573a1.757 1.757 0 1 1 .909 3.396l-35.083 9.4-3.645 6.083 32.712-8.766c5.662-1.516 8.629-3.722 10.122-5.306 1.55-1.645 2.255-3.445 1.887-4.819ZM55.207 67.5a1.757 1.757 0 0 0-1.242 2.154 1.756 1.756 0 0 0 2.154 1.242 1.757 1.757 0 1 0-.912-3.396Z"/></g><defs><clipPath id="a"><path fill="#fff" d="M0 0h150v150H0z"/></clipPath></defs></svg>